{
    "asset" : {
        "generator" : "Khronos glTF Blender I/O v3.3.32",
        "version" : "2.0"
    },
    "scene" : 0,
    "scenes" : [
        {
            "extras" : {
                "jewelcraft" : {
                    "weighting_materials" : {
                        "coll" : [
                            {
                                "name" : "Yellow Gold 24K",
                                "composition" : "Au 99.9%",
                                "density" : 19.32
                            },
                            {
                                "name" : "Yellow Gold 22K",
                                "composition" : "Au 91.6%, Ag 4.9%, Cu 3.5%",
                                "density" : 17.86
                            },
                            {
                                "name" : "Yellow Gold 18K",
                                "composition" : "Au 75.3%, Ag 16.5%, Cu 6.7%, Zn 1.5%",
                                "density" : 15.53
                            },
                            {
                                "name" : "Yellow Gold 14K",
                                "composition" : "Au 58.4%, Ag 9.8%, Cu 28%, Zn 3.8%",
                                "density" : 13.05
                            },
                            {
                                "name" : "Yellow Gold 10K",
                                "composition" : "Au 41.7%, Ag 11.2%, Cu 40.5%, Zn 6.6%",
                                "density" : 11.47
                            },
                            {
                                "name" : "White Gold 18K Pd",
                                "composition" : "Au 78.7%, Cu 8.3%, Pd 13%",
                                "density" : 15.66
                            },
                            {
                                "name" : "White Gold 18K Ni",
                                "composition" : "Au 75.15%, Cu 8.75%, Ni 12%, Zn 4.1%",
                                "density" : 14.69
                            },
                            {
                                "name" : "White Gold 14K Pd",
                                "composition" : "Au 58.55%, Cu 7.2%, Ag 20%, Pd 13.5%, Zn 0.75%",
                                "density" : 14.6
                            },
                            {
                                "name" : "White Gold 14K Ni",
                                "composition" : "Au 58.43%, Cu 21%, Ni 12.73%, Zn 7.84%",
                                "density" : 12.61
                            },
                            {
                                "name" : "White Gold 10K",
                                "composition" : "Au 41.7%, Cu 35.7%, Ni 10.3%, Zn 12.3%",
                                "density" : 10.99
                            },
                            {
                                "name" : "Rose Gold 18K",
                                "composition" : "Au 75.3%, Cu 23.3%, Ag 1.2%, Zn 0.2%",
                                "density" : 15.02
                            },
                            {
                                "name" : "Rose Gold 14K",
                                "composition" : "Au 58.4%, Cu 39.2%, Ag 2%, Zn 0.4%",
                                "density" : 13.03
                            },
                            {
                                "name" : "Rose Gold 10K",
                                "composition" : "Au 41.5%, Cu 55%, Ag 3%, Zn 0.5%",
                                "density" : 11.52
                            },
                            {
                                "name" : "Platinum 950",
                                "composition" : "Pt 95%, Ru 5%",
                                "density" : 20.7
                            },
                            {
                                "name" : "Platinum 900",
                                "composition" : "Pt 90%, Ir 10%",
                                "density" : 21.54
                            },
                            {
                                "name" : "Palladium 950",
                                "composition" : "Pd 95%, Ru 5%",
                                "density" : 12.16
                            },
                            {
                                "name" : "Silver Sterling",
                                "composition" : "Ag 92.5%, Cu 7.5%",
                                "density" : 10.36
                            }
                        ],
                        "index" : 0
                    }
                },
                "background-shader" : "simple_sky"
            },
            "name" : "Scene",
            "nodes" : [
                1,
                3,
                5,
                7,
                8
            ]
        }
    ],
    "nodes" : [
        {
            "camera" : 0,
            "name" : "regular-panoramic_Orientation",
            "rotation" : [
                -0.7071068286895752,
                0,
                0,
                0.7071068286895752
            ]
        },
        {
            "children" : [
                0
            ],
            "name" : "regular-panoramic",
            "rotation" : [
                0.7071068286895752,
                0,
                0,
                0.7071067094802856
            ]
        },
        {
            "camera" : 1,
            "name" : "insect-eye-spherical-projector_Orientation",
            "rotation" : [
                -0.7071068286895752,
                0,
                0,
                0.7071068286895752
            ]
        },
        {
            "children" : [
                2
            ],
            "name" : "insect-eye-spherical-projector",
            "rotation" : [
                0.7071068286895752,
                0,
                0,
                0.7071067094802856
            ]
        },
        {
            "camera" : 2,
            "name" : "insect-eye-spherical-projector-ids_Orientation",
            "rotation" : [
                -0.7071068286895752,
                0,
                0,
                0.7071068286895752
            ]
        },
        {
            "children" : [
                4
            ],
            "name" : "insect-eye-spherical-projector-ids",
            "rotation" : [
                0.7071068286895752,
                0,
                0,
                0.7071067094802856
            ]
        },
        {
            "camera" : 3,
            "name" : "insect-eye-fast-vector_Orientation",
            "rotation" : [
                -0.7071068286895752,
                0,
                0,
                0.7071068286895752
            ]
        },
        {
            "children" : [
                6
            ],
            "name" : "insect-eye-fast-vector",
            "rotation" : [
                0.7071068286895752,
                0,
                0,
                0.7071067094802856
            ]
        },
        {
            "mesh" : 0,
            "name" : "Plane",
            "scale" : [
                496.10650634765625,
                496.10650634765625,
                496.10650634765625
            ],
            "translation" : [
                0,
                -14.353710174560547,
                0
            ]
        }
    ],
    "cameras" : [
        {
            "extras" : {
                "panoramic" : "true"
            },
            "name" : "regular-panoramic",
            "perspective" : {
                "aspectRatio" : 1.7777777777777777,
                "yfov" : 0.39959651231765747,
                "zfar" : 1000,
                "znear" : 0.10000000149011612
            },
            "type" : "perspective"
        },
        {
            "extras" : {
                "compound-eye" : "true",
                "compound-projection" : "spherical_orientationwise",
                "compound-structure" : "lens_opticAxis_acceptance.eye"
            },
            "name" : "insect-eye-spherical-projector",
            "perspective" : {
                "aspectRatio" : 1.7777777777777777,
                "yfov" : 0.39959651231765747,
                "zfar" : 1000,
                "znear" : 0.10000000149011612
            },
            "type" : "perspective"
        },
        {
            "extras" : {
                "compound-eye" : "true",
                "compound-structure" : "lens_opticAxis_acceptance.eye",
                "compound-projection" : "spherical_orientationwise_ids"
            },
            "name" : "insect-eye-spherical-projector-ids",
            "perspective" : {
                "aspectRatio" : 1.7777777777777777,
                "yfov" : 0.39959651231765747,
                "zfar" : 1000,
                "znear" : 0.10000000149011612
            },
            "type" : "perspective"
        },
        {
            "extras" : {
                "compound-eye" : "true",
                "compound-projection" : "single_dimension_fast",
                "compound-structure" : "lens_opticAxis_acceptance.eye"
            },
            "name" : "insect-eye-fast-vector",
            "perspective" : {
                "aspectRatio" : 1.7777777777777777,
                "yfov" : 0.39959651231765747,
                "zfar" : 1000,
                "znear" : 0.10000000149011612
            },
            "type" : "perspective"
        }
    ],
    "materials" : [
        {
            "doubleSided" : true,
            "extras" : {
                "mmd_material" : {}
            },
            "name" : "Material.001",
            "pbrMetallicRoughness" : {
                "baseColorTexture" : {
                    "index" : 0
                },
                "metallicFactor" : 0,
                "roughnessFactor" : 0.5
            }
        }
    ],
    "meshes" : [
        {
            "name" : "Plane.001",
            "primitives" : [
                {
                    "attributes" : {
                        "POSITION" : 0,
                        "NORMAL" : 1,
                        "TEXCOORD_0" : 2
                    },
                    "indices" : 3,
                    "material" : 0
                }
            ]
        }
    ],
    "textures" : [
        {
            "sampler" : 0,
            "source" : 0
        }
    ],
    "images" : [
        {
            "bufferView" : 4,
            "mimeType" : "image/png",
            "name" : "image2"
        }
    ],
    "accessors" : [
        {
            "bufferView" : 0,
            "componentType" : 5126,
            "count" : 49168,
            "max" : [
                1.0103662014007568,
                0.11539829522371292,
                1.0051456689834595
            ],
            "min" : [
                -1.0001929998397827,
                -0.01425553672015667,
                -1.000455617904663
            ],
            "type" : "VEC3"
        },
        {
            "bufferView" : 1,
            "componentType" : 5126,
            "count" : 49168,
            "type" : "VEC3"
        },
        {
            "bufferView" : 2,
            "componentType" : 5126,
            "count" : 49168,
            "type" : "VEC2"
        },
        {
            "bufferView" : 3,
            "componentType" : 5123,
            "count" : 74088,
            "type" : "SCALAR"
        }
    ],
    "bufferViews" : [
        {
            "buffer" : 0,
            "byteLength" : 590016,
            "byteOffset" : 0,
            "target" : 34962
        },
        {
            "buffer" : 0,
            "byteLength" : 590016,
            "byteOffset" : 590016,
            "target" : 34962
        },
        {
            "buffer" : 0,
            "byteLength" : 393344,
            "byteOffset" : 1180032,
            "target" : 34962
        },
        {
            "buffer" : 0,
            "byteLength" : 148176,
            "byteOffset" : 1573376,
            "target" : 34963
        },
        {
            "buffer" : 0,
            "byteLength" : 1268814,
            "byteOffset" : 1721552
        }
    ],
    "samplers" : [
        {
            "magFilter" : 9729,
            "minFilter" : 9987
        }
    ],
    "buffers" : [
        {
            "byteLength" : 2990368,
            "uri" : "data:application/octet-stream;base64,"
        }
    ]
}
