{
	"asset":{
		"generator":"Khronos glTF Blender I/O v3.6.27",
		"version":"2.0"
	},
	"scene":0,
	"scenes":[
		{
			"extras":{
				"background-shader":"simple_sky"
			},
			"name":"Scene",
			"nodes":[
				1,
				3,
				5,
				7,
				8
			]
		}
	],
	"nodes":[
		{
			"camera":0,
			"name":"regular-panoramic_Orientation",
			"rotation":[
				-0.7071068286895752,
				0,
				0,
				0.7071068286895752
			]
		},
		{
			"children":[
				0
			],
			"name":"regular-panoramic",
			"rotation":[
				0.70710688829422,
				0,
				0,
				0.7071066498756409
			]
		},
		{
			"camera":1,
			"name":"insect-eye-spherical-projector_Orientation",
			"rotation":[
				-0.7071068286895752,
				0,
				0,
				0.7071068286895752
			]
		},
		{
			"children":[
				2
			],
			"name":"insect-eye-spherical-projector",
			"rotation":[
				0.70710688829422,
				0,
				0,
				0.7071066498756409
			]
		},
		{
			"camera":2,
			"name":"insect-eye-spherical-projector-ids_Orientation",
			"rotation":[
				-0.7071068286895752,
				0,
				0,
				0.7071068286895752
			]
		},
		{
			"children":[
				4
			],
			"name":"insect-eye-spherical-projector-ids",
			"rotation":[
				0.70710688829422,
				0,
				0,
				0.7071066498756409
			]
		},
		{
			"camera":3,
			"name":"insect-eye-fast-vector_Orientation",
			"rotation":[
				-0.7071068286895752,
				0,
				0,
				0.7071068286895752
			]
		},
		{
			"children":[
				6
			],
			"name":"insect-eye-fast-vector",
			"rotation":[
				0.70710688829422,
				0,
				0,
				0.7071066498756409
			]
		},
		{
			"mesh":0,
			"name":"Cylinder.002",
			"scale":[
				3.1050126552581787,
				3.1050126552581787,
				3.1050126552581787
			],
			"translation":[
				-49.973636627197266,
				-5.737479209899902,
				46.903602600097656
			]
		}
	],
	"cameras":[
		{
			"extras":{
				"panoramic":"true"
			},
			"name":"regular-panoramic",
			"perspective":{
				"aspectRatio":1.7777777777777777,
				"yfov":0.39959651231765747,
				"zfar":1000,
				"znear":0.10000000149011612
			},
			"type":"perspective"
		},
		{
			"extras":{
				"compound-eye":"true",
				"compound-projection":"spherical_orientationwise",
				"compound-structure":"defaultcsvdata.eye"
			},
			"name":"insect-eye-spherical-projector",
			"perspective":{
				"aspectRatio":1.7777777777777777,
				"yfov":0.39959651231765747,
				"zfar":1000,
				"znear":0.10000000149011612
			},
			"type":"perspective"
		},
		{
			"extras":{
				"compound-eye":"true",
				"compound-structure":"1000-horizontallyAcute-variableDegree.eye",
				"compound-projection":"spherical_orientationwise_ids"
			},
			"name":"insect-eye-spherical-projector-ids",
			"perspective":{
				"aspectRatio":1.7777777777777777,
				"yfov":0.39959651231765747,
				"zfar":1000,
				"znear":0.10000000149011612
			},
			"type":"perspective"
		},
		{
			"extras":{
				"compound-eye":"true",
				"compound-projection":"single_dimension_fast",
				"compound-structure":"1000-horizontallyAcute-variableDegree.eye"
			},
			"name":"insect-eye-fast-vector",
			"perspective":{
				"aspectRatio":1.7777777777777777,
				"yfov":0.39959651231765747,
				"zfar":1000,
				"znear":0.10000000149011612
			},
			"type":"perspective"
		}
	],
	"materials":[
		{
			"doubleSided":true,
			"name":"Material",
			"pbrMetallicRoughness":{
				"baseColorTexture":{
					"index":0
				},
				"metallicFactor":0,
				"roughnessFactor":0.5
			}
		}
	],
	"meshes":[
		{
			"name":"Cylinder.002",
			"primitives":[
				{
					"attributes":{
						"POSITION":0,
						"NORMAL":1,
						"TEXCOORD_0":2,
						"TEXCOORD_1":3
					},
					"indices":4,
					"material":0
				}
			]
		}
	],
	"textures":[
		{
			"sampler":0,
			"source":0
		}
	],
	"images":[
		{
			"bufferView":5,
			"mimeType":"image/png",
			"name":"SimplifiedDemonstrationCopy"
		}
	],
	"accessors":[
		{
			"bufferView":0,
			"componentType":5126,
			"count":2308,
			"max":[
				37.58756637573242,
				4.500781536102295,
				7.375225067138672
			],
			"min":[
				-6.430938720703125,
				-4.25539493560791,
				-36.643280029296875
			],
			"type":"VEC3"
		},
		{
			"bufferView":1,
			"componentType":5126,
			"count":2308,
			"type":"VEC3"
		},
		{
			"bufferView":2,
			"componentType":5126,
			"count":2308,
			"type":"VEC2"
		},
		{
			"bufferView":3,
			"componentType":5126,
			"count":2308,
			"type":"VEC2"
		},
		{
			"bufferView":4,
			"componentType":5123,
			"count":4470,
			"type":"SCALAR"
		}
	],
	"bufferViews":[
		{
			"buffer":0,
			"byteLength":27696,
			"byteOffset":0,
			"target":34962
		},
		{
			"buffer":0,
			"byteLength":27696,
			"byteOffset":27696,
			"target":34962
		},
		{
			"buffer":0,
			"byteLength":18464,
			"byteOffset":55392,
			"target":34962
		},
		{
			"buffer":0,
			"byteLength":18464,
			"byteOffset":73856,
			"target":34962
		},
		{
			"buffer":0,
			"byteLength":8940,
			"byteOffset":92320,
			"target":34963
		},
		{
			"buffer":0,
			"byteLength":107770,
			"byteOffset":101260
		}
	],
	"samplers":[
		{
			"magFilter":9729,
			"minFilter":9987
		}
	],
	"buffers":[
		{
			"byteLength":209032,
			"uri":"data:application/octet-stream;base64,"
		}
	]
}
