{
	"asset":{
		"generator":"Khronos glTF Blender I/O v3.6.27",
		"version":"2.0"
	},
	"scene":0,
	"scenes":[
		{
			"name":"Scene",
			"nodes":[
				0,
				2,
				4,
				6,
				8
			]
		}
	],
	"nodes":[
		{
			"mesh":0,
			"name":"Cylinder0",
			"translation":[
				1,
				0,
				-8
			]
		},
		{
			"camera":0,
			"name":"insect-eye-spherical-projector_Orientation",
			"rotation":[
				-0.7071068286895752,
				0,
				0,
				0.7071068286895752
			]
		},
		{
			"children":[
				1
			],
			"name":"insect-eye-spherical-projector",
			"rotation":[
				0.70710688829422,
				0,
				0,
				0.7071066498756409
			]
		},
		{
			"camera":1,
			"name":"insect-eye-fast-vector_Orientation",
			"rotation":[
				-0.7071068286895752,
				0,
				0,
				0.7071068286895752
			]
		},
		{
			"children":[
				3
			],
			"name":"insect-eye-fast-vector",
			"rotation":[
				0.70710688829422,
				0,
				0,
				0.7071066498756409
			]
		},
		{
			"camera":2,
			"name":"insect-eye-spherical-projector-ids_Orientation",
			"rotation":[
				-0.7071068286895752,
				0,
				0,
				0.7071068286895752
			]
		},
		{
			"children":[
				5
			],
			"name":"insect-eye-spherical-projector-ids",
			"rotation":[
				0.70710688829422,
				0,
				0,
				0.7071066498756409
			]
		},
		{
			"camera":3,
			"name":"regular-panoramic_Orientation",
			"rotation":[
				-0.7071068286895752,
				0,
				0,
				0.7071068286895752
			]
		},
		{
			"children":[
				7
			],
			"name":"regular-panoramic",
			"rotation":[
				0.70710688829422,
				0,
				0,
				0.7071066498756409
			]
		}
	],
	"cameras":[
		{
			"extras":{
				"compound-eye":"true",
				"compound-projection":"spherical_orientationwise",
				"compound-structure":"lens_opticAxis_acceptance.eye"
			},
			"name":"insect-eye-spherical-projector",
			"perspective":{
				"aspectRatio":1.7777777777777777,
				"yfov":0.39959651231765747,
				"zfar":1000,
				"znear":0.10000000149011612
			},
			"type":"perspective"
		},
		{
			"extras":{
				"compound-eye":"true",
				"compound-projection":"single_dimension_fast",
				"compound-structure":"1000-horizontallyAcute-variableDegree.eye"
			},
			"name":"insect-eye-fast-vector",
			"perspective":{
				"aspectRatio":1.7777777777777777,
				"yfov":0.39959651231765747,
				"zfar":1000,
				"znear":0.10000000149011612
			},
			"type":"perspective"
		},
		{
			"extras":{
				"compound-eye":"true",
				"compound-structure":"1000-horizontallyAcute-variableDegree.eye",
				"compound-projection":"spherical_orientationwise_ids"
			},
			"name":"insect-eye-spherical-projector-ids",
			"perspective":{
				"aspectRatio":1.7777777777777777,
				"yfov":0.39959651231765747,
				"zfar":1000,
				"znear":0.10000000149011612
			},
			"type":"perspective"
		},
		{
			"extras":{
				"panoramic":"true"
			},
			"name":"regular-panoramic",
			"perspective":{
				"aspectRatio":1.7777777777777777,
				"yfov":0.39959651231765747,
				"zfar":1000,
				"znear":0.10000000149011612
			},
			"type":"perspective"
		}
	],
	"meshes":[
		{
			"name":"Cylinder",
			"primitives":[
				{
					"attributes":{
						"POSITION":0,
						"NORMAL":1,
						"TEXCOORD_0":2
					},
					"indices":3
				}
			]
		}
	],
	"accessors":[
		{
			"bufferView":0,
			"componentType":5126,
			"count":964,
			"max":[
				24,
				15,
				33
			],
			"min":[
				-26,
				-15,
				-17
			],
			"type":"VEC3"
		},
		{
			"bufferView":1,
			"componentType":5126,
			"count":964,
			"type":"VEC3"
		},
		{
			"bufferView":2,
			"componentType":5126,
			"count":964,
			"type":"VEC2"
		},
		{
			"bufferView":3,
			"componentType":5123,
			"count":1866,
			"type":"SCALAR"
		}
	],
	"bufferViews":[
		{
			"buffer":0,
			"byteLength":11568,
			"byteOffset":0,
			"target":34962
		},
		{
			"buffer":0,
			"byteLength":11568,
			"byteOffset":11568,
			"target":34962
		},
		{
			"buffer":0,
			"byteLength":7712,
			"byteOffset":23136,
			"target":34962
		},
		{
			"buffer":0,
			"byteLength":3732,
			"byteOffset":30848,
			"target":34963
		}
	],
	"buffers":[
		{
			"byteLength":34580,
			"uri":"data:application/octet-stream;base64,"
		}
	]
}
