{
	"asset":{
		"generator":"Khronos glTF Blender I/O v3.6.27",
		"version":"2.0"
	},
	"extensionsUsed":[
		"KHR_materials_specular",
		"KHR_materials_ior"
	],
	"scene":0,
	"scenes":[
		{
			"extras":{
				"background-shader":"simple_sky"
			},
			"name":"Scene",
			"nodes":[
				1,
				3,
				5,
				7,
				8
			]
		}
	],
	"nodes":[
		{
			"camera":0,
			"name":"regular-panoramic_Orientation",
			"rotation":[
				-0.7071068286895752,
				0,
				0,
				0.7071068286895752
			]
		},
		{
			"children":[
				0
			],
			"name":"regular-panoramic",
			"rotation":[
				0.70710688829422,
				0,
				0,
				0.7071066498756409
			]
		},
		{
			"camera":1,
			"name":"insect-eye-spherical-projector_Orientation",
			"rotation":[
				-0.7071068286895752,
				0,
				0,
				0.7071068286895752
			]
		},
		{
			"children":[
				2
			],
			"name":"insect-eye-spherical-projector",
			"rotation":[
				0.70710688829422,
				0,
				0,
				0.7071066498756409
			]
		},
		{
			"camera":2,
			"name":"insect-eye-spherical-projector-ids_Orientation",
			"rotation":[
				-0.7071068286895752,
				0,
				0,
				0.7071068286895752
			]
		},
		{
			"children":[
				4
			],
			"name":"insect-eye-spherical-projector-ids",
			"rotation":[
				0.70710688829422,
				0,
				0,
				0.7071066498756409
			]
		},
		{
			"camera":3,
			"name":"insect-eye-fast-vector_Orientation",
			"rotation":[
				-0.7071068286895752,
				0,
				0,
				0.7071068286895752
			]
		},
		{
			"children":[
				6
			],
			"name":"insect-eye-fast-vector",
			"rotation":[
				0.70710688829422,
				0,
				0,
				0.7071066498756409
			]
		},
		{
			"mesh":0,
			"name":"Cylinder.002",
			"scale":[
				14.717318534851074,
				14.717318534851074,
				14.717318534851074
			],
			"translation":[
				-237.97244262695312,
				18.285606384277344,
				179.00241088867188
			]
		}
	],
	"cameras":[
		{
			"extras":{
				"panoramic":"true"
			},
			"name":"regular-panoramic",
			"perspective":{
				"aspectRatio":1.7777777777777777,
				"yfov":0.39959651231765747,
				"zfar":1000,
				"znear":0.10000000149011612
			},
			"type":"perspective"
		},
		{
			"extras":{
				"compound-eye":"true",
				"compound-projection":"spherical_orientationwise",
				"compound-structure":"simplified_demonstrations.eye"
			},
			"name":"insect-eye-spherical-projector",
			"perspective":{
				"aspectRatio":1.7777777777777777,
				"yfov":0.39959651231765747,
				"zfar":1000,
				"znear":0.10000000149011612
			},
			"type":"perspective"
		},
		{
			"extras":{
				"compound-eye":"true",
				"compound-structure":"1000-horizontallyAcute-variableDegree.eye",
				"compound-projection":"spherical_orientationwise_ids"
			},
			"name":"insect-eye-spherical-projector-ids",
			"perspective":{
				"aspectRatio":1.7777777777777777,
				"yfov":0.39959651231765747,
				"zfar":1000,
				"znear":0.10000000149011612
			},
			"type":"perspective"
		},
		{
			"extras":{
				"compound-eye":"true",
				"compound-projection":"single_dimension_fast",
				"compound-structure":"1000-horizontallyAcute-variableDegree.eye"
			},
			"name":"insect-eye-fast-vector",
			"perspective":{
				"aspectRatio":1.7777777777777777,
				"yfov":0.39959651231765747,
				"zfar":1000,
				"znear":0.10000000149011612
			},
			"type":"perspective"
		}
	],
	"materials":[
		{
			"doubleSided":true,
			"extensions":{
				"KHR_materials_specular":{
					"specularColorFactor":[
						0,
						0,
						0
					]
				},
				"KHR_materials_ior":{
					"ior":1.4500000476837158
				}
			},
			"name":"Material",
			"pbrMetallicRoughness":{
				"baseColorTexture":{
					"index":0
				},
				"metallicFactor":0,
				"roughnessFactor":0.5
			}
		}
	],
	"meshes":[
		{
			"name":"Cylinder.002",
			"primitives":[
				{
					"attributes":{
						"COLOR_0":0,
						"POSITION":1,
						"NORMAL":2,
						"TEXCOORD_0":3,
						"TEXCOORD_1":4
					},
					"indices":5,
					"material":0
				}
			]
		}
	],
	"textures":[
		{
			"sampler":0,
			"source":0
		}
	],
	"images":[
		{
			"bufferView":6,
			"mimeType":"image/png",
			"name":"SimplifiedDemonstrations1Image"
		}
	],
	"accessors":[
		{
			"bufferView":0,
			"componentType":5123,
			"count":964,
			"normalized":true,
			"type":"VEC4"
		},
		{
			"bufferView":1,
			"componentType":5126,
			"count":964,
			"max":[
				22.05108070373535,
				5.122629165649414,
				-11.118186950683594
			],
			"min":[
				10.121764183044434,
				-4.558208465576172,
				-23.047496795654297
			],
			"type":"VEC3"
		},
		{
			"bufferView":2,
			"componentType":5126,
			"count":964,
			"type":"VEC3"
		},
		{
			"bufferView":3,
			"componentType":5126,
			"count":964,
			"type":"VEC2"
		},
		{
			"bufferView":4,
			"componentType":5126,
			"count":964,
			"type":"VEC2"
		},
		{
			"bufferView":5,
			"componentType":5123,
			"count":1866,
			"type":"SCALAR"
		}
	],
	"bufferViews":[
		{
			"buffer":0,
			"byteLength":7712,
			"byteOffset":0,
			"target":34962
		},
		{
			"buffer":0,
			"byteLength":11568,
			"byteOffset":7712,
			"target":34962
		},
		{
			"buffer":0,
			"byteLength":11568,
			"byteOffset":19280,
			"target":34962
		},
		{
			"buffer":0,
			"byteLength":7712,
			"byteOffset":30848,
			"target":34962
		},
		{
			"buffer":0,
			"byteLength":7712,
			"byteOffset":38560,
			"target":34962
		},
		{
			"buffer":0,
			"byteLength":3732,
			"byteOffset":46272,
			"target":34963
		},
		{
			"buffer":0,
			"byteLength":51281,
			"byteOffset":50004
		}
	],
	"samplers":[
		{
			"magFilter":9729,
			"minFilter":9987
		}
	],
	"buffers":[
		{
			"byteLength":101288,
			"uri":"data:application/octet-stream;base64,"
		}
	]
}
