{
	"asset":{
		"generator":"Khronos glTF Blender I/O v3.6.27",
		"version":"2.0"
	},
	"scene":0,
	"scenes":[
		{
			"extras":{
				"background-shader":"simple_sky"
			},
			"name":"Scene",
			"nodes":[
				1,
				3,
				5,
				7,
				8
			]
		}
	],
	"nodes":[
		{
			"camera":0,
			"name":"regular-panoramic_Orientation",
			"rotation":[
				-0.7071068286895752,
				0,
				0,
				0.7071068286895752
			]
		},
		{
			"children":[
				0
			],
			"name":"regular-panoramic",
			"rotation":[
				0.70710688829422,
				0,
				0,
				0.7071066498756409
			]
		},
		{
			"camera":1,
			"name":"insect-eye-spherical-projector_Orientation",
			"rotation":[
				-0.7071068286895752,
				0,
				0,
				0.7071068286895752
			]
		},
		{
			"children":[
				2
			],
			"name":"insect-eye-spherical-projector",
			"rotation":[
				0.70710688829422,
				0,
				0,
				0.7071066498756409
			]
		},
		{
			"camera":2,
			"name":"insect-eye-spherical-projector-ids_Orientation",
			"rotation":[
				-0.7071068286895752,
				0,
				0,
				0.7071068286895752
			]
		},
		{
			"children":[
				4
			],
			"name":"insect-eye-spherical-projector-ids",
			"rotation":[
				0.70710688829422,
				0,
				0,
				0.7071066498756409
			]
		},
		{
			"camera":3,
			"name":"insect-eye-fast-vector_Orientation",
			"rotation":[
				-0.7071068286895752,
				0,
				0,
				0.7071068286895752
			]
		},
		{
			"children":[
				6
			],
			"name":"insect-eye-fast-vector",
			"rotation":[
				0.70710688829422,
				0,
				0,
				0.7071066498756409
			]
		},
		{
			"mesh":0,
			"name":"Torus",
			"scale":[
				3.977398157119751,
				3.977398157119751,
				3.977398157119751
			],
			"translation":[
				35.782230377197266,
				-4.119123935699463,
				-52.15821838378906
			]
		}
	],
	"cameras":[
		{
			"extras":{
				"panoramic":"true"
			},
			"name":"regular-panoramic",
			"perspective":{
				"aspectRatio":1.7777777777777777,
				"yfov":0.39959651231765747,
				"zfar":1000,
				"znear":0.10000000149011612
			},
			"type":"perspective"
		},
		{
			"extras":{
				"compound-eye":"true",
				"compound-projection":"spherical_orientationwise",
				"compound-structure":"lens_opticAxis_acceptance.eye"
			},
			"name":"insect-eye-spherical-projector",
			"perspective":{
				"aspectRatio":1.7777777777777777,
				"yfov":0.39959651231765747,
				"zfar":1000,
				"znear":0.10000000149011612
			},
			"type":"perspective"
		},
		{
			"extras":{
				"compound-eye":"true",
				"compound-structure":"1000-horizontallyAcute-variableDegree.eye",
				"compound-projection":"spherical_orientationwise_ids"
			},
			"name":"insect-eye-spherical-projector-ids",
			"perspective":{
				"aspectRatio":1.7777777777777777,
				"yfov":0.39959651231765747,
				"zfar":1000,
				"znear":0.10000000149011612
			},
			"type":"perspective"
		},
		{
			"extras":{
				"compound-eye":"true",
				"compound-projection":"single_dimension_fast",
				"compound-structure":"1000-horizontallyAcute-variableDegree.eye"
			},
			"name":"insect-eye-fast-vector",
			"perspective":{
				"aspectRatio":1.7777777777777777,
				"yfov":0.39959651231765747,
				"zfar":1000,
				"znear":0.10000000149011612
			},
			"type":"perspective"
		}
	],
	"materials":[
		{
			"doubleSided":true,
			"name":"Material.005",
			"pbrMetallicRoughness":{
				"baseColorTexture":{
					"index":0
				},
				"metallicFactor":0,
				"roughnessFactor":0.5
			}
		}
	],
	"meshes":[
		{
			"name":"Torus",
			"primitives":[
				{
					"attributes":{
						"POSITION":0,
						"NORMAL":1,
						"TEXCOORD_0":2
					},
					"indices":3,
					"material":0
				}
			]
		}
	],
	"textures":[
		{
			"sampler":0,
			"source":0
		}
	],
	"images":[
		{
			"bufferView":4,
			"mimeType":"image/png",
			"name":"NormalGeoTextureBake"
		}
	],
	"accessors":[
		{
			"bufferView":0,
			"componentType":5126,
			"count":3268,
			"max":[
				5.726030349731445,
				8.684296607971191,
				17.141828536987305
			],
			"min":[
				-23.22162437438965,
				-8.684296607971191,
				-11.805826187133789
			],
			"type":"VEC3"
		},
		{
			"bufferView":1,
			"componentType":5126,
			"count":3268,
			"type":"VEC3"
		},
		{
			"bufferView":2,
			"componentType":5126,
			"count":3268,
			"type":"VEC2"
		},
		{
			"bufferView":3,
			"componentType":5123,
			"count":5322,
			"type":"SCALAR"
		}
	],
	"bufferViews":[
		{
			"buffer":0,
			"byteLength":39216,
			"byteOffset":0,
			"target":34962
		},
		{
			"buffer":0,
			"byteLength":39216,
			"byteOffset":39216,
			"target":34962
		},
		{
			"buffer":0,
			"byteLength":26144,
			"byteOffset":78432,
			"target":34962
		},
		{
			"buffer":0,
			"byteLength":10644,
			"byteOffset":104576,
			"target":34963
		},
		{
			"buffer":0,
			"byteLength":39701,
			"byteOffset":115220
		}
	],
	"samplers":[
		{
			"magFilter":9729,
			"minFilter":9987
		}
	],
	"buffers":[
		{
			"byteLength":154924,
			"uri":"data:application/octet-stream;base64,"
		}
	]
}
